<?xml version="1.0" encoding="UTF-8" standalone="yes"?>
<!DOCTYPE svg PUBLIC "-//W3C//DTD SVG 1.0//EN" "http://www.w3.org/TR/2001/REC-SVG-20010904/DTD/svg10.dtd">
<svg height="100" width="190" xmlns="http://www.w3.org/2000/svg" xmlns:xlink="http://www.w3.org/1999/xlink">
  <metadata>
    <rdf:RDF xmlns:cc="http://web.resource.org/cc/" xmlns:dc="http://purl.org/dc/elements/1.1/" xmlns:rdf="http://www.w3.org/1999/02/22-rdf-syntax-ns#">
      <cc:Work rdf:about="">
        <dc:title>United States Flag</dc:title>
        <dc:description>The flag of the United States of America created according to the following website. http://stockholm.usembassy.gov/usflag/specs.html</dc:description>
        <dc:subject>
          <rdf:Bag>
            <rdf:li></rdf:li>
            <rdf:li>hash(0x87a4bb4)</rdf:li>
            <rdf:li>north america</rdf:li>
            <rdf:li>flags</rdf:li>
            <rdf:li>signs_and_symbols</rdf:li>
            <rdf:li>hash(0x86524c0)</rdf:li>
            <rdf:li>hash(0x869cdb0)</rdf:li>
          </rdf:Bag>
        </dc:subject>
        <dc:publisher>
          <cc:Agent rdf:about="http://www.openclipart.org">
            <dc:title>Jonathan Jeffus</dc:title>
          </cc:Agent>
        </dc:publisher>
        <dc:creator>
          <cc:Agent>
            <dc:title>Jonathan Jeffus</dc:title>
          </cc:Agent>
        </dc:creator>
        <dc:rights>
          <cc:Agent>
            <dc:title>Jonathan Jeffus</dc:title>
          </cc:Agent>
        </dc:rights>
        <dc:date>2006-04-22</dc:date>
        <dc:format>image/svg+xml</dc:format>
        <dc:type rdf:resource="http://purl.org/dc/dcmitype/StillImage"/>
        <cc:license rdf:resource="http://web.resource.org/cc/PublicDomain"/>
        <dc:language>en</dc:language>
      </cc:Work>
      <cc:License rdf:about="http://web.resource.org/cc/PublicDomain">
        <cc:permits rdf:resource="http://web.resource.org/cc/Reproduction"/>
        <cc:permits rdf:resource="http://web.resource.org/cc/Distribution"/>
        <cc:permits rdf:resource="http://web.resource.org/cc/DerivativeWorks"/>
      </cc:License>
    </rdf:RDF>
  </metadata>
  <g id="us_flag">
    <rect height="100" id="backdrop" style="fill: #c60c30; stroke: none" width="190" x="0" y="0"/>
    <rect height="53.8461538461538" id="union" style="fill: #002c78; stroke: none" width="76" x="0" y="0"/>
    <rect height="7.69230769230769" id="stripe1" style="fill: #FFFFFF; stroke: none" width="114" x="76" y="7.69230769230769"/>
    <rect height="7.69230769230769" id="stripe2" style="fill: #FFFFFF; stroke: none" width="114" x="76" y="23.0769230769231"/>
    <rect height="7.69230769230769" id="stripe3" style="fill: #FFFFFF; stroke: none" width="114" x="76" y="38.4615384615385"/>
    <rect height="7.69230769230769" id="stripe4" style="fill: #FFFFFF; stroke: none" width="190" x="0" y="53.8461538461538"/>
    <rect height="7.69230769230769" id="stripe5" style="fill: #FFFFFF; stroke: none" width="190" x="0" y="69.2307692307692"/>
    <rect height="7.69230769230769" id="stripe6" style="fill: #FFFFFF; stroke: none" width="190" x="0" y="84.6153846153846"/>
    <polygon id="star1" points="5.60624396263398,4.38386272021803 6.33333333333333,2.14611173396152 7.06042270403269,4.38386272021803 9.41333333333333,4.38386272021803 7.50978864798366,5.76686888808316 8.23687801868301,8.00461987433967 6.33333333333333,6.62161370647454 4.42978864798366,8.00461987433967 5.15687801868301,5.76686888808316 3.25333333333333,4.38386272021803 " style="fill: #FFFFFF"/>
    <polygon id="star2" points="18.2729106293007,4.38386272021803 19,2.14611173396152 19.7270893706993,4.38386272021803 22.08,4.38386272021803 20.1764553146503,5.76686888808316 20.9035446853497,8.00461987433967 19,6.62161370647454 17.0964553146503,8.00461987433967 17.8235446853497,5.76686888808316 15.92,4.38386272021803 " style="fill: #FFFFFF"/>
    <polygon id="star3" points="30.9395772959673,4.38386272021803 31.6666666666667,2.14611173396152 32.393756037366,4.38386272021803 34.7466666666667,4.38386272021803 32.843121981317,5.76686888808316 33.5702113520164,8.00461987433967 31.6666666666667,6.62161370647454 29.763121981317,8.00461987433967 30.4902113520163,5.76686888808316 28.5866666666667,4.38386272021803 " style="fill: #FFFFFF"/>
    <polygon id="star4" points="43.606243962634,4.38386272021803 44.3333333333333,2.14611173396152 45.0604227040327,4.38386272021803 47.4133333333333,4.38386272021803 45.5097886479837,5.76686888808316 46.236878018683,8.00461987433967 44.3333333333333,6.62161370647454 42.4297886479837,8.00461987433967 43.156878018683,5.76686888808316 41.2533333333333,4.38386272021803 " style="fill: #FFFFFF"/>
    <polygon id="star5" points="56.2729106293007,4.38386272021803 57,2.14611173396152 57.7270893706994,4.38386272021803 60.08,4.38386272021803 58.1764553146503,5.76686888808316 58.9035446853497,8.00461987433967 57,6.62161370647454 55.0964553146503,8.00461987433967 55.8235446853497,5.76686888808316 53.92,4.38386272021803 " style="fill: #FFFFFF"/>
    <polygon id="star6" points="68.9395772959673,4.38386272021803 69.6666666666667,2.14611173396152 70.393756037366,4.38386272021803 72.7466666666667,4.38386272021803 70.843121981317,5.76686888808316 71.5702113520163,8.00461987433967 69.6666666666667,6.62161370647454 67.763121981317,8.00461987433967 68.4902113520163,5.76686888808316 66.5866666666667,4.38386272021803 " style="fill: #FFFFFF"/>
    <polygon id="star7" points="11.9395772959673,9.76847810483342 12.6666666666667,7.53072711857691 13.393756037366,9.76847810483342 15.7466666666667,9.76847810483342 13.843121981317,11.1514842726985 14.5702113520163,13.3892352589551 12.6666666666667,12.0062290910899 10.763121981317,13.3892352589551 11.4902113520163,11.1514842726985 9.58666666666667,9.76847810483342 " style="fill: #FFFFFF"/>
    <polygon id="star8" points="24.606243962634,9.76847810483342 25.3333333333333,7.53072711857691 26.0604227040327,9.76847810483342 28.4133333333333,9.76847810483342 26.5097886479837,11.1514842726985 27.236878018683,13.3892352589551 25.3333333333333,12.0062290910899 23.4297886479837,13.3892352589551 24.156878018683,11.1514842726985 22.2533333333333,9.76847810483342 " style="fill: #FFFFFF"/>
    <polygon id="star9" points="37.2729106293007,9.76847810483342 38,7.53072711857691 38.7270893706994,9.76847810483342 41.08,9.76847810483342 39.1764553146503,11.1514842726985 39.9035446853497,13.3892352589551 38,12.0062290910899 36.0964553146503,13.3892352589551 36.8235446853497,11.1514842726985 34.92,9.76847810483342 " style="fill: #FFFFFF"/>
    <polygon id="star10" points="49.9395772959673,9.76847810483342 50.6666666666667,7.53072711857691 51.393756037366,9.76847810483342 53.7466666666667,9.76847810483342 51.843121981317,11.1514842726985 52.5702113520164,13.3892352589551 50.6666666666667,12.0062290910899 48.763121981317,13.3892352589551 49.4902113520164,11.1514842726985 47.5866666666667,9.76847810483342 " style="fill: #FFFFFF"/>
    <polygon id="star11" points="62.606243962634,9.76847810483342 63.3333333333333,7.53072711857691 64.0604227040327,9.76847810483342 66.4133333333333,9.76847810483342 64.5097886479837,11.1514842726985 65.236878018683,13.3892352589551 63.3333333333333,12.0062290910899 61.4297886479837,13.3892352589551 62.156878018683,11.1514842726985 60.2533333333333,9.76847810483342 " style="fill: #FFFFFF"/>
    <polygon id="star12" points="5.60624396263398,15.1530934894488 6.33333333333333,12.9153425031923 7.06042270403269,15.1530934894488 9.41333333333333,15.1530934894488 7.50978864798366,16.5360996573139 8.23687801868301,18.7738506435704 6.33333333333333,17.3908444757053 4.42978864798366,18.7738506435704 5.15687801868301,16.5360996573139 3.25333333333333,15.1530934894488 " style="fill: #FFFFFF"/>
    <polygon id="star13" points="18.2729106293007,15.1530934894488 19,12.9153425031923 19.7270893706993,15.1530934894488 22.08,15.1530934894488 20.1764553146503,16.5360996573139 20.9035446853497,18.7738506435704 19,17.3908444757053 17.0964553146503,18.7738506435704 17.8235446853497,16.5360996573139 15.92,15.1530934894488 " style="fill: #FFFFFF"/>
    <polygon id="star14" points="30.9395772959673,15.1530934894488 31.6666666666667,12.9153425031923 32.393756037366,15.1530934894488 34.7466666666667,15.1530934894488 32.843121981317,16.5360996573139 33.5702113520164,18.7738506435704 31.6666666666667,17.3908444757053 29.763121981317,18.7738506435704 30.4902113520163,16.5360996573139 28.5866666666667,15.1530934894488 " style="fill: #FFFFFF"/>
    <polygon id="star15" points="43.606243962634,15.1530934894488 44.3333333333333,12.9153425031923 45.0604227040327,15.1530934894488 47.4133333333333,15.1530934894488 45.5097886479837,16.5360996573139 46.236878018683,18.7738506435704 44.3333333333333,17.3908444757053 42.4297886479837,18.7738506435704 43.156878018683,16.5360996573139 41.2533333333333,15.1530934894488 " style="fill: #FFFFFF"/>
    <polygon id="star16" points="56.2729106293007,15.1530934894488 57,12.9153425031923 57.7270893706994,15.1530934894488 60.08,15.1530934894488 58.1764553146503,16.5360996573139 58.9035446853497,18.7738506435704 57,17.3908444757053 55.0964553146503,18.7738506435704 55.8235446853497,16.5360996573139 53.92,15.1530934894488 " style="fill: #FFFFFF"/>
    <polygon id="star17" points="68.9395772959673,15.1530934894488 69.6666666666667,12.9153425031923 70.393756037366,15.1530934894488 72.7466666666667,15.1530934894488 70.843121981317,16.5360996573139 71.5702113520163,18.7738506435704 69.6666666666667,17.3908444757053 67.763121981317,18.7738506435704 68.4902113520163,16.5360996573139 66.5866666666667,15.1530934894488 " style="fill: #FFFFFF"/>
    <polygon id="star18" points="11.9395772959673,20.5377088740642 12.6666666666667,18.2999578878077 13.393756037366,20.5377088740642 15.7466666666667,20.5377088740642 13.843121981317,21.9207150419293 14.5702113520163,24.1584660281858 12.6666666666667,22.7754598603207 10.763121981317,24.1584660281858 11.4902113520163,21.9207150419293 9.58666666666667,20.5377088740642 " style="fill: #FFFFFF"/>
    <polygon id="star19" points="24.606243962634,20.5377088740642 25.3333333333333,18.2999578878077 26.0604227040327,20.5377088740642 28.4133333333333,20.5377088740642 26.5097886479837,21.9207150419293 27.236878018683,24.1584660281858 25.3333333333333,22.7754598603207 23.4297886479837,24.1584660281858 24.156878018683,21.9207150419293 22.2533333333333,20.5377088740642 " style="fill: #FFFFFF"/>
    <polygon id="star20" points="37.2729106293007,20.5377088740642 38,18.2999578878077 38.7270893706994,20.5377088740642 41.08,20.5377088740642 39.1764553146503,21.9207150419293 39.9035446853497,24.1584660281858 38,22.7754598603207 36.0964553146503,24.1584660281858 36.8235446853497,21.9207150419293 34.92,20.5377088740642 " style="fill: #FFFFFF"/>
    <polygon id="star21" points="49.9395772959673,20.5377088740642 50.6666666666667,18.2999578878077 51.393756037366,20.5377088740642 53.7466666666667,20.5377088740642 51.843121981317,21.9207150419293 52.5702113520164,24.1584660281858 50.6666666666667,22.7754598603207 48.763121981317,24.1584660281858 49.4902113520164,21.9207150419293 47.5866666666667,20.5377088740642 " style="fill: #FFFFFF"/>
    <polygon id="star22" points="62.606243962634,20.5377088740642 63.3333333333333,18.2999578878077 64.0604227040327,20.5377088740642 66.4133333333333,20.5377088740642 64.5097886479837,21.9207150419293 65.236878018683,24.1584660281858 63.3333333333333,22.7754598603207 61.4297886479837,24.1584660281858 62.156878018683,21.9207150419293 60.2533333333333,20.5377088740642 " style="fill: #FFFFFF"/>
    <polygon id="star23" points="5.60624396263398,25.9223242586796 6.33333333333333,23.6845732724231 7.06042270403269,25.9223242586796 9.41333333333333,25.9223242586796 7.50978864798366,27.3053304265447 8.23687801868301,29.5430814128012 6.33333333333333,28.1600752449361 4.42978864798366,29.5430814128012 5.15687801868301,27.3053304265447 3.25333333333333,25.9223242586796 " style="fill: #FFFFFF"/>
    <polygon id="star24" points="18.2729106293007,25.9223242586796 19,23.6845732724231 19.7270893706993,25.9223242586796 22.08,25.9223242586796 20.1764553146503,27.3053304265447 20.9035446853497,29.5430814128012 19,28.1600752449361 17.0964553146503,29.5430814128012 17.8235446853497,27.3053304265447 15.92,25.9223242586796 " style="fill: #FFFFFF"/>
    <polygon id="star25" points="30.9395772959673,25.9223242586796 31.6666666666667,23.6845732724231 32.393756037366,25.9223242586796 34.7466666666667,25.9223242586796 32.843121981317,27.3053304265447 33.5702113520164,29.5430814128012 31.6666666666667,28.1600752449361 29.763121981317,29.5430814128012 30.4902113520163,27.3053304265447 28.5866666666667,25.9223242586796 " style="fill: #FFFFFF"/>
    <polygon id="star26" points="43.606243962634,25.9223242586796 44.3333333333333,23.6845732724231 45.0604227040327,25.9223242586796 47.4133333333333,25.9223242586796 45.5097886479837,27.3053304265447 46.236878018683,29.5430814128012 44.3333333333333,28.1600752449361 42.4297886479837,29.5430814128012 43.156878018683,27.3053304265447 41.2533333333333,25.9223242586796 " style="fill: #FFFFFF"/>
    <polygon id="star27" points="56.2729106293007,25.9223242586796 57,23.6845732724231 57.7270893706994,25.9223242586796 60.08,25.9223242586796 58.1764553146503,27.3053304265447 58.9035446853497,29.5430814128012 57,28.1600752449361 55.0964553146503,29.5430814128012 55.8235446853497,27.3053304265447 53.92,25.9223242586796 " style="fill: #FFFFFF"/>
    <polygon id="star28" points="68.9395772959673,25.9223242586796 69.6666666666667,23.6845732724231 70.393756037366,25.9223242586796 72.7466666666667,25.9223242586796 70.843121981317,27.3053304265447 71.5702113520163,29.5430814128012 69.6666666666667,28.1600752449361 67.763121981317,29.5430814128012 68.4902113520163,27.3053304265447 66.5866666666667,25.9223242586796 " style="fill: #FFFFFF"/>
    <polygon id="star29" points="11.9395772959673,31.306939643295 12.6666666666667,29.0691886570384 13.393756037366,31.306939643295 15.7466666666667,31.306939643295 13.843121981317,32.6899458111601 14.5702113520163,34.9276967974166 12.6666666666667,33.5446906295515 10.763121981317,34.9276967974166 11.4902113520163,32.6899458111601 9.58666666666667,31.306939643295 " style="fill: #FFFFFF"/>
    <polygon id="star30" points="24.606243962634,31.306939643295 25.3333333333333,29.0691886570384 26.0604227040327,31.306939643295 28.4133333333333,31.306939643295 26.5097886479837,32.6899458111601 27.236878018683,34.9276967974166 25.3333333333333,33.5446906295515 23.4297886479837,34.9276967974166 24.156878018683,32.6899458111601 22.2533333333333,31.306939643295 " style="fill: #FFFFFF"/>
    <polygon id="star31" points="37.2729106293007,31.306939643295 38,29.0691886570384 38.7270893706994,31.306939643295 41.08,31.306939643295 39.1764553146503,32.6899458111601 39.9035446853497,34.9276967974166 38,33.5446906295515 36.0964553146503,34.9276967974166 36.8235446853497,32.6899458111601 34.92,31.306939643295 " style="fill: #FFFFFF"/>
    <polygon id="star32" points="49.9395772959673,31.306939643295 50.6666666666667,29.0691886570384 51.393756037366,31.306939643295 53.7466666666667,31.306939643295 51.843121981317,32.6899458111601 52.5702113520164,34.9276967974166 50.6666666666667,33.5446906295515 48.763121981317,34.9276967974166 49.4902113520164,32.6899458111601 47.5866666666667,31.306939643295 " style="fill: #FFFFFF"/>
    <polygon id="star33" points="62.606243962634,31.306939643295 63.3333333333333,29.0691886570384 64.0604227040327,31.306939643295 66.4133333333333,31.306939643295 64.5097886479837,32.6899458111601 65.236878018683,34.9276967974166 63.3333333333333,33.5446906295515 61.4297886479837,34.9276967974166 62.156878018683,32.6899458111601 60.2533333333333,31.306939643295 " style="fill: #FFFFFF"/>
    <polygon id="star34" points="5.60624396263398,36.6915550279103 6.33333333333333,34.4538040416538 7.06042270403269,36.6915550279103 9.41333333333333,36.6915550279103 7.50978864798366,38.0745611957755 8.23687801868301,40.312312182032 6.33333333333333,38.9293060141669 4.42978864798366,40.312312182032 5.15687801868301,38.0745611957755 3.25333333333333,36.6915550279103 " style="fill: #FFFFFF"/>
    <polygon id="star35" points="18.2729106293007,36.6915550279103 19,34.4538040416538 19.7270893706993,36.6915550279103 22.08,36.6915550279103 20.1764553146503,38.0745611957755 20.9035446853497,40.312312182032 19,38.9293060141669 17.0964553146503,40.312312182032 17.8235446853497,38.0745611957755 15.92,36.6915550279103 " style="fill: #FFFFFF"/>
    <polygon id="star36" points="30.9395772959673,36.6915550279103 31.6666666666667,34.4538040416538 32.393756037366,36.6915550279103 34.7466666666667,36.6915550279103 32.843121981317,38.0745611957755 33.5702113520164,40.312312182032 31.6666666666667,38.9293060141669 29.763121981317,40.312312182032 30.4902113520163,38.0745611957755 28.5866666666667,36.6915550279103 " style="fill: #FFFFFF"/>
    <polygon id="star37" points="43.606243962634,36.6915550279103 44.3333333333333,34.4538040416538 45.0604227040327,36.6915550279103 47.4133333333333,36.6915550279103 45.5097886479837,38.0745611957755 46.236878018683,40.312312182032 44.3333333333333,38.9293060141669 42.4297886479837,40.312312182032 43.156878018683,38.0745611957755 41.2533333333333,36.6915550279103 " style="fill: #FFFFFF"/>
    <polygon id="star38" points="56.2729106293007,36.6915550279103 57,34.4538040416538 57.7270893706994,36.6915550279103 60.08,36.6915550279103 58.1764553146503,38.0745611957755 58.9035446853497,40.312312182032 57,38.9293060141669 55.0964553146503,40.312312182032 55.8235446853497,38.0745611957755 53.92,36.6915550279103 " style="fill: #FFFFFF"/>
    <polygon id="star39" points="68.9395772959673,36.6915550279103 69.6666666666667,34.4538040416538 70.393756037366,36.6915550279103 72.7466666666667,36.6915550279103 70.843121981317,38.0745611957755 71.5702113520163,40.312312182032 69.6666666666667,38.9293060141669 67.763121981317,40.312312182032 68.4902113520163,38.0745611957755 66.5866666666667,36.6915550279103 " style="fill: #FFFFFF"/>
    <polygon id="star40" points="11.9395772959673,42.0761704125257 12.6666666666667,39.8384194262692 13.393756037366,42.0761704125257 15.7466666666667,42.0761704125257 13.843121981317,43.4591765803909 14.5702113520163,45.6969275666474 12.6666666666667,44.3139213987822 10.763121981317,45.6969275666474 11.4902113520163,43.4591765803909 9.58666666666667,42.0761704125257 " style="fill: #FFFFFF"/>
    <polygon id="star41" points="24.606243962634,42.0761704125257 25.3333333333333,39.8384194262692 26.0604227040327,42.0761704125257 28.4133333333333,42.0761704125257 26.5097886479837,43.4591765803909 27.236878018683,45.6969275666474 25.3333333333333,44.3139213987822 23.4297886479837,45.6969275666474 24.156878018683,43.4591765803909 22.2533333333333,42.0761704125257 " style="fill: #FFFFFF"/>
    <polygon id="star42" points="37.2729106293007,42.0761704125257 38,39.8384194262692 38.7270893706994,42.0761704125257 41.08,42.0761704125257 39.1764553146503,43.4591765803909 39.9035446853497,45.6969275666474 38,44.3139213987822 36.0964553146503,45.6969275666474 36.8235446853497,43.4591765803909 34.92,42.0761704125257 " style="fill: #FFFFFF"/>
    <polygon id="star43" points="49.9395772959673,42.0761704125257 50.6666666666667,39.8384194262692 51.393756037366,42.0761704125257 53.7466666666667,42.0761704125257 51.843121981317,43.4591765803909 52.5702113520164,45.6969275666474 50.6666666666667,44.3139213987822 48.763121981317,45.6969275666474 49.4902113520164,43.4591765803909 47.5866666666667,42.0761704125257 " style="fill: #FFFFFF"/>
    <polygon id="star44" points="62.606243962634,42.0761704125257 63.3333333333333,39.8384194262692 64.0604227040327,42.0761704125257 66.4133333333333,42.0761704125257 64.5097886479837,43.4591765803909 65.236878018683,45.6969275666474 63.3333333333333,44.3139213987822 61.4297886479837,45.6969275666474 62.156878018683,43.4591765803909 60.2533333333333,42.0761704125257 " style="fill: #FFFFFF"/>
    <polygon id="star45" points="5.60624396263398,47.4607857971411 6.33333333333333,45.2230348108846 7.06042270403269,47.4607857971411 9.41333333333333,47.4607857971411 7.50978864798366,48.8437919650062 8.23687801868301,51.0815429512627 6.33333333333333,49.6985367833976 4.42978864798366,51.0815429512627 5.15687801868301,48.8437919650062 3.25333333333333,47.4607857971411 " style="fill: #FFFFFF"/>
    <polygon id="star46" points="18.2729106293007,47.4607857971411 19,45.2230348108846 19.7270893706993,47.4607857971411 22.08,47.4607857971411 20.1764553146503,48.8437919650062 20.9035446853497,51.0815429512627 19,49.6985367833976 17.0964553146503,51.0815429512627 17.8235446853497,48.8437919650062 15.92,47.4607857971411 " style="fill: #FFFFFF"/>
    <polygon id="star47" points="30.9395772959673,47.4607857971411 31.6666666666667,45.2230348108846 32.393756037366,47.4607857971411 34.7466666666667,47.4607857971411 32.843121981317,48.8437919650062 33.5702113520164,51.0815429512627 31.6666666666667,49.6985367833976 29.763121981317,51.0815429512627 30.4902113520163,48.8437919650062 28.5866666666667,47.4607857971411 " style="fill: #FFFFFF"/>
    <polygon id="star48" points="43.606243962634,47.4607857971411 44.3333333333333,45.2230348108846 45.0604227040327,47.4607857971411 47.4133333333333,47.4607857971411 45.5097886479837,48.8437919650062 46.236878018683,51.0815429512627 44.3333333333333,49.6985367833976 42.4297886479837,51.0815429512627 43.156878018683,48.8437919650062 41.2533333333333,47.4607857971411 " style="fill: #FFFFFF"/>
    <polygon id="star49" points="56.2729106293007,47.4607857971411 57,45.2230348108846 57.7270893706994,47.4607857971411 60.08,47.4607857971411 58.1764553146503,48.8437919650062 58.9035446853497,51.0815429512627 57,49.6985367833976 55.0964553146503,51.0815429512627 55.8235446853497,48.8437919650062 53.92,47.4607857971411 " style="fill: #FFFFFF"/>
    <polygon id="star50" points="68.9395772959673,47.4607857971411 69.6666666666667,45.2230348108846 70.393756037366,47.4607857971411 72.7466666666667,47.4607857971411 70.843121981317,48.8437919650062 71.5702113520163,51.0815429512627 69.6666666666667,49.6985367833976 67.763121981317,51.0815429512627 68.4902113520163,48.8437919650062 66.5866666666667,47.4607857971411 " style="fill: #FFFFFF"/>
  </g>
<!-- 
	Generated using the Perl SVG Module V2.33
	by Ronan Oger
	Info: http://www.roasp.com/
 -->
</svg>
